{
  "accessors": [
    {
      "bufferView": 2,
      "componentType": 5126,
      "count": 32874,
      "max": [
        0.6390150189399719,
        5.808558940887451,
        1.000810980796814
      ],
      "min": [
        -1.2802749872207642,
        4.448048114776611,
        -0.9263049960136414
      ],
      "type": "VEC3"
    },
    {
      "bufferView": 2,
      "byteOffset": 394488,
      "componentType": 5126,
      "count": 32874,
      "max": [
        0.9999207854270935,
        0.999997615814209,
        0.9999021291732788
      ],
      "min": [
        -0.9999993443489075,
        -0.9998568892478943,
        -0.9997808933258057
      ],
      "type": "VEC3"
    },
    {
      "bufferView": 1,
      "componentType": 5126,
      "count": 32874,
      "max": [
        0.9968100190162659,
        0.9999849796295166
      ],
      "min": [
        7.300000288523734e-05,
        1.2999999853491317e-05
      ],
      "type": "VEC2"
    },
    {
      "bufferView": 0,
      "componentType": 5125,
      "count": 180000,
      "type": "SCALAR"
    }
  ],
  "asset": {
    "extras": {
      "author": "Przemek Gesicki - DigitWorlds (https://sketchfab.com/DigitWorlds)",
      "license": "CC-BY-NC-4.0 (http://creativecommons.org/licenses/by-nc/4.0/)",
      "source": "https://sketchfab.com/3d-models/3d-scan-nike-zoom-pegasus-by-digitworlds-2021-4e06df0f215b48d79b7ae6592e270387",
      "title": "3d scan Nike Zoom Pegasus by DigitWorlds 2021"
    },
    "generator": "Sketchfab-12.66.0",
    "version": "2.0"
  },
  "bufferViews": [
    {
      "buffer": 0,
      "byteLength": 720000,
      "name": "floatBufferViews",
      "target": 34963
    },
    {
      "buffer": 0,
      "byteLength": 262992,
      "byteOffset": 720000,
      "byteStride": 8,
      "name": "floatBufferViews",
      "target": 34962
    },
    {
      "buffer": 0,
      "byteLength": 788976,
      "byteOffset": 982992,
      "byteStride": 12,
      "name": "floatBufferViews",
      "target": 34962
    }
  ],
  "buffers": [
    {
      "byteLength": 1771968,
      "uri": "scene.bin"
    }
  ],
  "extensionsUsed": [
    "KHR_materials_unlit"
  ],
  "images": [
    {
      "uri": "textures/color_raw_baseColor.jpeg"
    }
  ],
  "materials": [
    {
      "doubleSided": true,
      "extensions": {
        "KHR_materials_unlit": {}
      },
      "name": "color_raw",
      "pbrMetallicRoughness": {
        "baseColorTexture": {
          "index": 0
        },
        "metallicFactor": 0.0
      }
    }
  ],
  "meshes": [
    {
      "name": "Object_0",
      "primitives": [
        {
          "attributes": {
            "NORMAL": 1,
            "POSITION": 0,
            "TEXCOORD_0": 2
          },
          "indices": 3,
          "material": 0,
          "mode": 4
        }
      ]
    }
  ],
  "nodes": [
    {
      "children": [
        1
      ],
      "matrix": [
        0.7335439920425415,
        -0.16105304658412947,
        0.660284161567688,
        0.0,
        0.18893252313137054,
        -0.8849030733108519,
        -0.42573589086532615,
        0.0,
        0.6528535485267639,
        0.4370451569557191,
        -0.6186871528625487,
        0.0,
        -0.2688097059726715,
        13.062842369079592,
        -9.64117622375488,
        1.0
      ],
      "name": "Sketchfab_model"
    },
    {
      "children": [
        2
      ],
      "name": "color raw.obj.cleaner.materialmerger.gles"
    },
    {
      "mesh": 0,
      "name": "Object_2"
    }
  ],
  "samplers": [
    {
      "magFilter": 9729,
      "minFilter": 9987,
      "wrapS": 10497,
      "wrapT": 10497
    }
  ],
  "scene": 0,
  "scenes": [
    {
      "name": "Sketchfab_Scene",
      "nodes": [
        0
      ]
    }
  ],
  "textures": [
    {
      "sampler": 0,
      "source": 0
    }
  ]
}
